<?xml version="1.0" encoding="UTF-8" standalone="no"?>
<svg
   version="1.1"
   viewBox="0.0 0.0 343.93700787401576 207.8740157480315"
   fill="none"
   stroke="none"
   stroke-linecap="square"
   stroke-miterlimit="10"
   id="svg17"
   sodipodi:docname="card-template-default.svg"
   inkscape:version="1.3.2 (091e20e, 2023-11-25)"
   xml:space="preserve"
   xmlns:inkscape="http://www.inkscape.org/namespaces/inkscape"
   xmlns:sodipodi="http://sodipodi.sourceforge.net/DTD/sodipodi-0.dtd"
   xmlns="http://www.w3.org/2000/svg"
   xmlns:svg="http://www.w3.org/2000/svg"><defs
     id="defs17"><rect
       x="142.10901"
       y="84.705369"
       width="174.31105"
       height="29.401863"
       id="rect17" /></defs><sodipodi:namedview
     id="namedview17"
     pagecolor="#ffffff"
     bordercolor="#000000"
     borderopacity="0.25"
     inkscape:showpageshadow="2"
     inkscape:pageopacity="0.0"
     inkscape:pagecheckerboard="0"
     inkscape:deskcolor="#d1d1d1"
     inkscape:zoom="2.0087877"
     inkscape:cx="133.66271"
     inkscape:cy="97.32238"
     inkscape:window-width="1872"
     inkscape:window-height="872"
     inkscape:window-x="31"
     inkscape:window-y="112"
     inkscape:window-maximized="0"
     inkscape:current-layer="g2" /><clipPath
     id="p.0"><path
       d="m0 0l343.937 0l0 207.87401l-343.937 0l0 -207.87401z"
       clip-rule="nonzero"
       id="path1" /></clipPath><g
     clip-path="url(#p.0)"
     id="g17"><path
       fill="#ffffff"
       d="m0 0l343.937 0l0 207.87401l-343.937 0z"
       fill-rule="evenodd"
       id="path2" /><path
       fill="#000000"
       fill-opacity="0.0"
       d="m12.263851 73.47339l-0.0019073486 -62.049377l75.318726 0l0.0019073486 62.049377z"
       fill-rule="evenodd"
       id="path3" /><text
       xml:space="preserve"
       style="font-size:26.6667px;line-height:1.1;font-family:'Hiragino Mincho Pro';-inkscape-font-specification:'Hiragino Mincho Pro';fill:#000000;stroke:#000000;stroke-width:0.377953;stroke-linecap:round;stroke-linejoin:round"
       x="145.79514"
       y="133.19466"
       id="text18"><tspan
         sodipodi:role="line"
         id="tspan18"
         x="145.79514"
         y="133.19466"
         style="font-size:26.6667px">NAME</tspan></text><path
       fill="#000000"
       fill-opacity="0.0"
       d="m126.585304 68.645645l208.44095 0l0 66.36221l-208.44095 0z"
       fill-rule="evenodd"
       id="path5" /><path
       fill="#ffffff"
       d="m32.276676 163.6181l84.409454 0l0 18.551178l-84.409454 0z"
       fill-rule="evenodd"
       id="path7" /><path
       stroke="#ffffff"
       stroke-width="1.0"
       stroke-linejoin="round"
       stroke-linecap="butt"
       d="m32.276676 163.6181l84.409454 0l0 18.551178l-84.409454 0z"
       fill-rule="evenodd"
       id="path8" /><path
       fill="#000000"
       fill-opacity="0.0"
       d="m25.974771 153.0146l96.56693 0l0 36.62993l-96.56693 0z"
       fill-rule="evenodd"
       id="path11" /><path
       fill="#000000"
       fill-opacity="0.0"
       d="m124.005226 13.758487l195.81891 0l0 54.501278l-195.81891 0z"
       fill-rule="evenodd"
       id="path13" /><path
       fill="#000000"
       fill-opacity="0.0"
       d="m333.60168 134.36627l0.0018920898 62.049377l-75.318726 0l-0.0019226074 -62.049377z"
       fill-rule="evenodd"
       id="path15" /><text
       xml:space="preserve"
       style="font-size:13.3333px;line-height:1.1;font-family:'Hiragino Mincho Pro';-inkscape-font-specification:'Hiragino Mincho Pro';fill:#000000;stroke:#000000;stroke-width:0.377953;stroke-linecap:round;stroke-linejoin:round"
       x="47.596706"
       y="177.66582"
       id="text19"><tspan
         sodipodi:role="line"
         id="tspan19"
         x="47.596706"
         y="177.66582"
         style="font-style:normal;font-variant:normal;font-weight:normal;font-stretch:normal;font-size:13.3333px;font-family:Arial;-inkscape-font-specification:Arial">ID: XXXX</tspan></text><rect
       style="fill:none;stroke:#000000;stroke-width:0.377953;stroke-linecap:round;stroke-linejoin:round;stroke-opacity:1"
       id="QR"
       width="72.913391"
       height="70.960632"
       x="38.022335"
       y="87.471497"
       inkscape:label="QR" /><g
       id="g2"
       transform="matrix(0.80160318,0,0,0.80160318,69.51265,-32.195731)"><rect
         width="199.60001"
         height="59.599998"
         fill="#2563eb"
         rx="7.9840002"
         id="rect1-7"
         x="112"
         y="67"
         style="stroke-width:0.995664" /><text
         x="186.84821"
         y="106.72766"
         font-family="Arial, sans-serif"
         font-size="27.5544px"
         font-weight="bold"
         fill="#ffffff"
         id="text7-7"
         style="stroke-width:1.37772"
         transform="scale(1.0023462,0.99765925)">Member</text><g
         id="g8"
         transform="matrix(0.17560451,0,0,0.17478338,145.93585,91.063819)"><path
           id="rect3-9"
           style="display:inline;fill:#b3d9ff;stroke:#333333;stroke-width:16.0697"
           d="M -96.593191,-67.852348 H 175.95189 c 11.10221,0 20.04008,8.937875 20.04008,20.040079 V 113.44986 c 0,11.1022 -8.93787,20.04008 -20.04008,20.04008 H -96.593191 c -11.102199,0 -20.040079,-8.93788 -20.040079,-20.04008 V -47.812269 c 0,-11.102204 8.93788,-20.040079 20.040079,-20.040079 z" /><path
           id="line3"
           style="stroke:#333333;stroke-width:12.0523;stroke-linecap:round"
           d="M -76.553108,-27.583895 H 155.91182" /><path
           d="m -65.351868,11.661643 q 0.299642,-1.098686 0.998806,-2.0974912 0.699164,-1.098686 1.598089,-1.8977304 0.998805,-0.7990444 2.097491,-1.0986861 1.198567,-0.3995222 2.397134,0 3.69558,-1.4982083 7.491041,-2.4970138 3.895341,-0.9988055 7.690802,-1.0986861 3.895342,-0.1997611 7.590922,0.6991639 3.795461,0.7990444 7.291281,3.0962971 2.796655,1.7978499 4.894147,4.4946246 2.197372,2.696775 3.5957,5.693192 2.397133,5.393549 2.197372,10.787099 -0.199761,5.293669 -2.497014,9.888175 -2.297253,4.594505 -6.492236,8.090324 -4.095103,3.49582 -9.688413,5.093909 -4.194984,1.198566 -8.589728,1.198566 -4.294864,-0.09988 -8.489847,-0.599283 v 9.688413 q 0,1.098686 0.09988,2.297253 0.09988,1.198567 0,2.397133 0,1.198567 -0.299642,2.297253 -0.199761,1.198567 -0.898925,2.197372 -1.198566,1.997611 -3.096297,2.397133 -1.89773,0.499403 -3.69558,-0.199761 -1.69797,-0.599283 -2.996417,-2.197372 -1.198567,-1.498208 -1.198567,-3.69558 v -17.9785 q -1.89773,-0.998805 -2.796655,-2.497013 -0.898925,-1.498209 -0.799044,-2.996417 0.09988,-1.598089 0.998805,-2.996416 0.898925,-1.398328 2.497014,-2.297253 V 12.260927 Z m 29.065241,4.394745 q -4.194983,-1.69797 -8.589727,-0.998806 -4.294864,0.699164 -8.389967,2.596895 v 21.77396 q 4.694386,0.799044 9.588533,0.399522 4.894147,-0.399522 8.98925,-2.996417 2.896536,-1.89773 3.995222,-4.794266 1.098686,-2.896536 0.799044,-5.892953 -0.299641,-2.996416 -1.997611,-5.693191 -1.697969,-2.796655 -4.394744,-4.394744 z m 73.312231,48.94147 q -0.299642,2.197372 -1.498208,3.69558 -1.198567,1.598089 -2.796656,2.197372 -1.498208,0.599284 -3.296058,0.09988 -1.697969,-0.399522 -3.196177,-2.297253 -1.298448,-1.598088 -1.498209,-3.495819 -0.09988,-1.997611 -0.499403,-3.895341 -0.998805,-5.493431 -2.896536,-11.286503 -6.192594,0.09988 -12.2853074,0.09988 -6.0927136,0 -12.1854272,0.09988 -0.898925,2.596895 -1.5980889,5.29367 -0.5992833,2.696774 -1.1985666,5.293669 -0.4994027,1.997611 -0.8989249,4.194983 -0.3995222,2.097492 -1.79785,3.69558 -1.697969,1.997611 -3.69558,2.197372 -1.897731,0.299642 -3.49582,-0.599283 -1.498208,-0.898925 -2.497013,-2.696775 -0.898925,-1.89773 -0.599284,-4.294863 0.299642,-3.096298 1.198567,-6.092714 0.898925,-2.996417 1.697969,-5.992833 4.494625,-17.179455 11.5861442,-33.260224 0.5992833,-1.398328 1.1985666,-2.696775 0.6991639,-1.298447 1.2984472,-2.596894 0.6991638,-1.398328 1.3983277,-2.9964166 Q 0.16968056,8.0659436 1.0686055,6.7674964 2.067411,5.3691687 3.3658582,4.4702437 4.6643054,3.4714382 6.5620359,3.4714382 q 2.4970137,0 4.1949831,1.5980888 6.791878,6.791878 11.186622,15.381605 4.394744,8.489847 7.890563,17.379216 2.097492,-0.09988 4.095103,0 1.997611,0.09988 3.5957,1.79785 1.398328,1.398328 1.598089,2.996416 0.299641,1.598089 -0.299642,3.096297 -0.499403,1.498209 -1.79785,2.596895 -1.198567,1.098686 -2.996416,1.498208 0.998805,3.495819 1.697969,7.1914 0.799044,3.5957 1.298447,7.29128 z M 16.649972,37.830348 q -1.897731,-4.494625 -4.095103,-8.889369 -2.097492,-4.494625 -4.7942665,-8.489847 -1.9976111,4.394744 -3.795461,8.789488 -1.6979694,4.294864 -3.19617763,8.789489 4.69438593,-0.09988 8.19020523,-0.09988 3.5956999,0 7.6908029,-0.09988 z m 28.965433,23.072407 q -0.699164,-1.89773 -0.499403,-3.795461 0.299642,-1.89773 1.298447,-3.196177 1.098687,-1.398328 2.796656,-1.897731 1.697969,-0.599283 3.795461,0.299642 1.89773,0.799044 3.196177,2.397133 1.398328,1.498208 3.296059,2.397133 2.596894,1.298448 5.293669,1.897731 1.89773,0.499403 3.795461,0.699164 1.89773,0.09988 3.895341,0.09988 1.498209,-0.399522 2.596895,-0.799044 1.098686,-0.399522 2.397133,-1.69797 1.498208,-1.298447 1.89773,-3.096297 0.499403,-1.79785 0,-3.495819 -0.399522,-1.79785 -1.697969,-3.196178 -1.198567,-1.498208 -2.996416,-1.997611 -3.49582,-1.198566 -6.991639,-1.79785 -3.495819,-0.699163 -6.791878,-1.598088 -3.296058,-0.898925 -6.292474,-2.497014 -2.896536,-1.69797 -5.39355,-4.794267 -1.398328,-1.697969 -1.79785,-2.996416 -0.399522,-1.298447 -0.898925,-3.296058 -0.898925,-4.794267 0.699164,-8.090325 1.697969,-3.296058 4.194983,-5.992833 3.196178,-3.495819 7.1914,-5.2936694 4.095102,-1.8977304 8.489847,-2.3971332 4.494624,-0.5992833 8.989249,0.1997611 4.594506,0.6991639 8.689608,2.4970138 2.397133,0.9988057 2.996417,3.0962967 0.699164,2.097492 0.09988,4.095103 -0.599283,1.997611 -2.297252,3.296058 -1.69797,1.298447 -3.995222,0.898925 -2.397134,-0.499403 -4.494625,-0.998805 -2.097492,-0.599284 -4.194983,-0.998806 -1.598089,-0.299642 -3.49582,-0.09988 -1.79785,0.199761 -3.495819,0.699163 -1.598089,0.399523 -2.996417,0.998806 -1.398327,0.499403 -2.097491,1.098686 -0.799045,0.699164 -1.598089,1.79785 -0.699164,1.098686 -0.799044,2.497014 -0.199761,1.697969 1.298447,2.796655 1.498208,1.098686 3.196177,1.598089 3.296059,0.699164 6.791878,1.398328 3.495819,0.599283 6.891758,1.79785 3.395939,1.098686 6.292475,2.896536 2.996416,1.79785 5.093908,4.794266 2.297253,2.596894 3.296058,5.892953 0.998806,3.296058 0.699164,6.592116 -0.199761,3.296058 -1.498208,6.392355 -1.298448,2.996417 -3.5957,5.29367 -1.598089,1.598088 -3.395939,2.696774 -1.697969,1.198567 -3.69558,2.297253 -3.995222,2.097492 -8.589728,2.097492 -4.594505,0 -9.189011,-1.398328 -4.594505,-1.298447 -8.689608,-3.69558 -4.095102,-2.497014 -6.991638,-5.39355 z m 55.134105,0 q -0.69916,-1.89773 -0.4994,-3.795461 0.29964,-1.89773 1.29845,-3.196177 1.09869,-1.398328 2.79665,-1.897731 1.69797,-0.599283 3.79547,0.299642 1.89773,0.799044 3.19617,2.397133 1.39833,1.498208 3.29606,2.397133 2.5969,1.298448 5.29367,1.897731 1.89773,0.499403 3.79546,0.699164 1.89773,0.09988 3.89534,0.09988 1.49821,-0.399522 2.5969,-0.799044 1.09868,-0.399522 2.39713,-1.69797 1.49821,-1.298447 1.89773,-3.096297 0.4994,-1.79785 0,-3.495819 -0.39952,-1.79785 -1.69797,-3.196178 -1.19857,-1.498208 -2.99641,-1.997611 -3.49582,-1.198566 -6.99164,-1.79785 -3.49582,-0.699163 -6.79188,-1.598088 -3.29606,-0.898925 -6.29248,-2.497014 -2.89653,-1.69797 -5.39355,-4.794267 -1.39832,-1.697969 -1.79785,-2.996416 -0.39952,-1.298447 -0.89892,-3.296058 -0.89893,-4.794267 0.69916,-8.090325 1.69797,-3.296058 4.19499,-5.992833 3.19617,-3.495819 7.1914,-5.2936694 4.0951,-1.8977304 8.48984,-2.3971332 4.49463,-0.5992833 8.98925,0.1997611 4.59451,0.6991639 8.68961,2.4970138 2.39713,0.9988057 2.99642,3.0962967 0.69916,2.097492 0.0999,4.095103 -0.59929,1.997611 -2.29725,3.296058 -1.69797,1.298447 -3.99523,0.898925 -2.39713,-0.499403 -4.49462,-0.998805 -2.09749,-0.599284 -4.19498,-0.998806 -1.59809,-0.299642 -3.49582,-0.09988 -1.79785,0.199761 -3.49582,0.699163 -1.59809,0.399523 -2.99642,0.998806 -1.39833,0.499403 -2.09749,1.098686 -0.79905,0.699164 -1.59809,1.79785 -0.69916,1.098686 -0.79904,2.497014 -0.19977,1.697969 1.29844,2.796655 1.49821,1.098686 3.19618,1.598089 3.29606,0.699164 6.79188,1.398328 3.49582,0.599283 6.89176,1.79785 3.39593,1.098686 6.29247,2.896536 2.99642,1.79785 5.09391,4.794266 2.29725,2.596894 3.29606,5.892953 0.9988,3.296058 0.69916,6.592116 -0.19976,3.296058 -1.49821,6.392355 -1.29845,2.996417 -3.5957,5.29367 -1.59809,1.598088 -3.39594,2.696774 -1.69797,1.198567 -3.69558,2.297253 -3.99522,2.097492 -8.58972,2.097492 -4.59451,0 -9.18902,-1.398328 -4.5945,-1.298447 -8.6896,-3.69558 -4.09511,-2.497014 -6.99164,-5.39355 z"
           id="text3"
           style="font-weight:bold;font-size:90.3919px;font-family:Chalkboard;-inkscape-font-specification:'Chalkboard Bold';text-anchor:middle;fill:#333333;stroke-width:1.00435"
           transform="scale(0.99765925,1.0023462)"
           aria-label="PASS" /><path
           id="line4"
           style="stroke:#333333;stroke-width:12.0523;stroke-linecap:round"
           d="M -76.553108,93.221474 H 155.91182" /></g></g></g></svg>
